<svg width="8" height="9" viewBox="0 0 8 9" fill="none" xmlns="http://www.w3.org/2000/svg">
<path d="M0.84 9V0.36H4.236C4.784 0.36 5.244 0.472 5.616 0.696C5.988 0.92 6.268 1.21 6.456 1.566C6.644 1.918 6.738 2.29 6.738 2.682C6.738 3.158 6.62 3.566 6.384 3.906C6.152 4.246 5.838 4.478 5.442 4.602L5.43 4.308C5.982 4.444 6.406 4.71 6.702 5.106C6.998 5.498 7.146 5.956 7.146 6.48C7.146 6.988 7.044 7.43 6.84 7.806C6.64 8.182 6.346 8.476 5.958 8.688C5.574 8.896 5.108 9 4.56 9H0.84ZM2.112 7.806H4.368C4.652 7.806 4.906 7.752 5.13 7.644C5.358 7.536 5.536 7.382 5.664 7.182C5.796 6.978 5.862 6.736 5.862 6.456C5.862 6.196 5.804 5.962 5.688 5.754C5.576 5.542 5.412 5.376 5.196 5.256C4.984 5.132 4.734 5.07 4.446 5.07H2.112V7.806ZM2.112 3.888H4.218C4.45 3.888 4.658 3.842 4.842 3.75C5.03 3.654 5.178 3.518 5.286 3.342C5.398 3.162 5.454 2.946 5.454 2.694C5.454 2.358 5.342 2.082 5.118 1.866C4.894 1.65 4.594 1.542 4.218 1.542H2.112V3.888Z" fill="black"/>
</svg>
